<?xml version="1.0" encoding="UTF-8" standalone="no"?>
<svg width="54px" height="54px" viewBox="0 0 54 54" version="1.1" xmlns="http://www.w3.org/2000/svg" xmlns:xlink="http://www.w3.org/1999/xlink">
    <!-- Generator: Sketch 41.2 (35397) - http://www.bohemiancoding.com/sketch -->
    <title>Moon</title>
    <desc>Created with Sketch.</desc>
    <defs></defs>
    <g id="Page-1" stroke="none" stroke-width="1" fill="none" fill-rule="evenodd">
        <g id="Moon" fill="#000000">
            <path d="M17.9,4.6 C17.7,5.9 17.7,7.1 17.7,8.4 C17.7,25 31.2,38.4 47.7,38.4 L48.7,38.4 C44.5,45.8 36.6,50.4 27.9,50.4 C14.6,50.4 3.9,39.6 3.9,26.4 C3.8,17 9.5,8.5 17.9,4.6 L17.9,4.6 Z M22,0.1 C9.9,2.8 0.8,13.6 0.8,26.5 C0.8,41.4 12.9,53.5 27.8,53.5 C39.8,53.5 50,45.7 53.5,34.8 C51.6,35.2 49.6,35.5 47.6,35.5 C32.7,35.5 20.6,23.4 20.6,8.5 C20.7,5.5 21.1,2.7 22,0.1 L22,0.1 Z" id="Shape"></path>
        </g>
    </g>
</svg>